<?xml version="1.0" encoding="UTF-8"?>
<svg width="317px" height="306px" viewBox="0 0 317 306" version="1.1" xmlns="http://www.w3.org/2000/svg" xmlns:xlink="http://www.w3.org/1999/xlink">
    <!-- Generator: Sketch 43.2 (39069) - http://www.bohemiancoding.com/sketch -->
    <title>Logo 1 monotone</title>
    <desc>Created with Sketch.</desc>
    <defs></defs>
    <g id="Page-1" stroke="none" stroke-width="1" fill="none" fill-rule="evenodd">
        <g id="Desktop-HD" transform="translate(-1114.000000, -59.000000)" fill="#343C46">
            <g id="Logo-1-monotone" transform="translate(1114.000000, 59.000000)">
                <path d="M279.306955,184.922432 L115.441686,105 L94.8005701,147.32056 L144.962757,171.786294 L107.674198,248.239171 C95.3730037,251.806774 83.4502218,257.921476 66.9398285,249.868819 C39.3773946,236.425722 51.4687843,210.022072 29.7697194,198.492582 C15.8992809,191.122721 3.50554583,200.880679 3.50554583,200.880679 C1.16104622,202.331796 0.241816922,201.496067 1.45594642,199.006732 L90.0512173,17.3595079 C91.2637544,14.8734384 93.9760232,11.4370798 96.2110135,9.80404313 C96.2110135,9.80404313 114.781268,-7.65341852 139.392613,4.60551032 C164.003958,16.8644392 150.668638,41.3523593 177.079213,54.2336573 C203.489788,67.1149553 217.847092,40.8703166 243.998585,53.625252 C270.150078,66.3801874 258.041276,93.7214939 281.685186,105.253399 C305.329095,116.785304 314.022172,108.132276 314.022172,108.132276 C315.89684,106.986228 316.636641,107.671159 315.679761,109.651358 L279.306955,184.922432 Z M258.820245,227.318301 L228.582226,289.893846 C227.380091,292.381583 224.526718,295.612622 222.135388,296.993807 C222.135388,296.993807 199.958829,313.250798 174.062292,300.14047 C159.115271,292.573423 156.561917,280.952979 152.249315,270.125541 L189.595255,193.555017 L258.820245,227.318301 Z" id="Combined-Shape"></path>
            </g>
        </g>
    </g>
</svg>